# xmcd
#
# Track frame offsets:
# 150
# 24033
# 37201
# 63591
# 84983
# 100933
# 117690
# 136666
# 153134
# 172944
# 184891
#
# Disc length: 2559 seconds
#
#
# Revision: 0
# Processed by: cddbd v1.5.2PL0 Copyright (c) Steve Scherf et al.
# Submitted via: FreeRIP 2.951 
#
DISCID=8609fd0b
DTITLE=Ill-Eagles - Ill Ennium
DYEAR=1900
DGENRE=Country
TTITLE0=Itchy Head - Radio
TTITLE1=Hang Up And Drive
TTITLE2=Chattahoochie Sax - Presidential Lover
TTITLE3=Aliens Among Us
TTITLE4=Lettermans Big One - In The New Country
TTITLE5=Sax Challenge - Six Months On A Ship
TTITLE6=Heavy Head - That Dont Depress Me ... Much
TTITLE7=Stuck On Effingham
TTITLE8=Clinton Library - Impeachment
TTITLE9=Rudolph Got Run Over
TTITLE10=Happy Trails
EXTD=
EXTT0=
EXTT1=
EXTT2=
EXTT3=
EXTT4=
EXTT5=
EXTT6=
EXTT7=
EXTT8=
EXTT9=
EXTT10=
PLAYORDER=
